<?xml version="1.0" standalone="no"?>
<!DOCTYPE svg PUBLIC "-//W3C//DTD SVG 20010904//EN"
 "http://www.w3.org/TR/2001/REC-SVG-20010904/DTD/svg10.dtd">
<svg version="1.0" xmlns="http://www.w3.org/2000/svg"
 width="250.000000pt" height="250.000000pt" viewBox="0 0 250.000000 250.000000"
 preserveAspectRatio="xMidYMid meet">

<g transform="translate(0.000000,250.000000) scale(0.100000,-0.100000)"
fill="#000000" stroke="none">
<path d="M0 1899 c0 -477 3 -599 13 -593 6 4 40 27 74 51 l62 43 3 82 c2 64 7
83 20 92 29 18 43 -8 48 -92 l5 -77 82 -50 c56 -34 84 -57 88 -74 8 -32 1 -37
-45 -25 -31 9 -40 8 -44 -3 -9 -22 -36 -15 -46 12 -15 40 -30 29 -30 -23 0
-36 5 -54 20 -67 11 -10 20 -26 20 -37 0 -15 -5 -17 -25 -12 -25 6 -25 6 -19
-37 11 -74 54 -200 99 -289 232 -463 768 -694 1264 -545 146 43 298 127 426
235 28 23 16 9 -27 -32 -270 -263 -664 -359 -1033 -253 -191 55 -332 143 -481
298 -153 160 -246 337 -282 539 l-15 87 -29 -6 c-24 -5 -28 -2 -28 15 0 12 9
26 20 32 16 9 20 21 20 64 0 49 -2 54 -20 49 -11 -3 -18 -9 -15 -13 8 -13 -6
-40 -21 -40 -8 0 -17 6 -20 14 -5 12 -11 12 -42 2 l-37 -13 -3 -617 -2 -616
1250 0 1250 0 0 1250 0 1250 -1250 0 -1250 0 0 -601z"/>
</g>
</svg>
